<svg id="Layer_1" data-name="Layer 1" xmlns="http://www.w3.org/2000/svg" width="458" height="496.93" viewBox="0 0 458 496.93"><g style="opacity:0.05"><path d="M320.7,416c4.84,2.08,13.15,3.46,16.61-1.38,11.07-22.15-16.61-33.22-26.3-48.45-4.84-7.61-11.07-14.53-10.38-24.91,2.77-13.15,15.22-19.38,25.61-22.84,22.14-6.23,22.14,18,34.6,28.37,11.07,4.85,16.61,17.31,30.45,16.61,7.61.7,12.46-2.76,15.23-9,3.46-17.3-9-24.92-20.77-33.22-15.22-11.07-31.83-18.69-39.44-36,3.46-4.84.69-13.15,8.3-15.23,15.92-3.46,27,10.39,44.29,6.23,14.54-.69,24.92-9,31.15-22.83-5.54-24.23-28.38-4.85-42.22-16.61-9.69-9.69-26.3-11.08-29.07-25.61,8.31-9.69,23.53-9.69,29.76-22.84,1.39-7.61.69-15.92-4.15-20.76-13.84-4.15-22.15,4.15-34.6,4.15-2.77,4.15-9.69,5.54-15.23,5.54-3.46-4.16-11.07-6.92-11.76-13.15,9-13.15,21.45-18.69,27.68-33.22,1.38-10.38,4.84-23.53-5.54-29.07-33.22-4.15-30.45,36.68-60.9,39.45-4.85-1.38-7.61-4.85-10.38-9.69-4.85-20.76,2.77-38.76-.69-58.83-2.77-4.84-7.62-10.38-13.15-10.38-3.46,1.39-7.62,3.46-9.69,6.92-6.23,17.31,4.84,40.84-9.69,55.37l-4.15,2.08a20.56,20.56,0,0,1-14.54,1.38c-4.84-2.77-10.38-4.15-12.45-10.38C207.2,99,194.05,85.85,184.36,69.94c-3.46-3.46-6.92,0-9.69,2.07-10.38,20.76-2.77,46.37,2.08,66.44-.69,1.39-.69,5.54-3.46,3.46-18.69-13.15-36-27-54.68-38.06l-.69-3.46c15.23-26.3,38.76-51.22,64.36-63.67,16.61-4.16,38.76,3.46,54-2.77,4.84-2.08,8.3-5.54,11.07-10.38S249.42,10.42,245.26,7a47.71,47.71,0,0,0-9-3.46C222.42,0,205.12,1.42,192.67,5.57,148.37,13.88,115.15,48.48,86.09,81a397.7,397.7,0,0,0-50.53,83.05c-13.84,38.06-19.37,86.51-9.68,128,4.84,20.07,13.84,38.07,18,58.83,8.3,13.15,6.23,35.29,26.3,38.75,5.53,2.77,9.69-2.07,13.84-4.15-2.08-24.22-13.15-46.37-17.3-70.59C66,308,57,300.4,64.63,294.86c34.61,13.84,72,2.08,109.35,1.38,6.23,1.39,6.92,9,10.38,13.15,0,33.91-36,40.14-55.37,60.91-9,20.76-26.29,31.83-40.14,45.67l-.69,8.31c4.85,4.84,9.69,11.76,16.61,9,27.68-15.22,38.76-49.83,67.83-66.43,3.46-2.77,5.53-9.69,10.38-11.08,1.38.69,1.38,2.08,1.38,3.46-13.15,15.23-20.76,32.53-29.76,49.14-5.54,15.23-20.07,26.3-20.07,42.91,6.92,4.15,15.92,10.38,24.92,5.53,8.3-5.53,4.84-16.61,9-24.22,15.23-28.37,22.15-60.21,41.53-87.2,5.53-2.77,9.69-6.23,15.91-2.77,5.54,4.15,9.69,9.69,9.69,15.92-3.46,25.61-9.69,49.83-16.61,73.36-.69,8.3-9,20.76,1.39,27,4.84,2.08,10.38,2.08,14.53,0l2.08-4.15c10.38-21.46,11.76-47.06,20.76-69.21,3.46-10.38-7.61-28.37,6.92-32.53,6.92-2.76,13.15.7,18,5.54C301.32,375.14,302,401.44,320.7,416M161.52,189c0,5.54-5.53,6.23-9,9-24.23,2.77-49.83-11.77-72,.69-6.23,4.15-6.23,11.77-6.23,18,14.53,24.22,47.75,29.06,74.05,25.6,3.46,0,6.92,2.77,8.31,5.54,0,4.84,2.77,10.38-2.77,14.53-9.69,4.85-19.38,2.77-30.45,4.15-22.84,1.39-50.52,9-64.36-12.45-11.08-39.45,4.15-78.9,29.06-108,4.15-6.23,8.31-15.22,16.61-18,14.54,18,30.45,31.84,49.83,45.68A13.48,13.48,0,0,1,161.52,189m78.9,131.5-4.15-2.08C214.81,308,201,285.17,187.82,265.1s-10.38-47.75,2.77-67.13c10.38-15.23,27-24.92,45.68-29.07,4.84-.69,9.68-1.38,15.22-2.07,36-3.46,58.83,22.14,78.21,45,8.3,18.69,9.68,46.37-.7,64.36-6.22,9-13.84,17.31-22.83,22.84-17.31,18.69-40.84,26.3-65.75,21.46" transform="translate(-21 -1.54)" style="fill:#000000"/><path d="M476.42,245c-.7-20.07-12.46-36-18-54-6.23-9-11.07-20.76-17.3-29.76-3.46-3.46-8.31-2.77-12.46-.69v23.53c2.08,7.61,4.15,15.92,6.92,22.84,7.62,14.53,13.84,27.68,17.3,43.6,7.62,44.29-13.84,76.82-31.83,110-19.38,43.6-60.21,81-90.66,111.42-6.23,3.46-16.61,5.54-16.61,14.53.69,6.23,3.46,9,9,11.77,6.92.69,13.84-1.39,20.76-3.46,11.76-8.31,29.06-9,34.6-24.92,32.53-31.83,57.44-73.36,76.82-112.8,21.46-31.84,28.38-71.29,21.46-112.12" transform="translate(-21 -1.54)" style="fill:#000000"/><path d="M331.08,77.55c13.15.69,33.91,6.92,42.22-4.85,2.76-7.61-1.39-14.53-4.85-19.37-15.22-4.85-25.6-22.15-45.67-15.23-4.85,5.54-11.77,11.77-9.69,22.15,1.38,8.3,9.69,14.53,18,17.3" transform="translate(-21 -1.54)" style="fill:#000000"/></g></svg>